<svg width="102" height="62" viewBox="0 0 102 62" fill="none" xmlns="http://www.w3.org/2000/svg">
<path fill-rule="evenodd" clip-rule="evenodd" d="M16.9332 15.4181L0 30.8362L17.1025 46.4181C26.5092 54.9883 34.319 62 34.4589 62C34.5982 62 38.3133 58.6989 42.7152 54.6641C47.1171 50.6294 50.8498 47.3282 51.0104 47.3282C51.1709 47.3282 54.9036 50.6294 59.3055 54.6641C63.7074 58.6989 67.422 62 67.5603 62C67.6986 62 75.5043 54.9964 84.9057 46.4361L102 30.8727L85.16 15.5544C75.8974 7.12953 68.0684 0.157606 67.7617 0.060583C67.4557 -0.0364399 63.5582 3.2117 59.1014 7.27814L50.9984 14.6722L42.9824 7.33588C38.5738 3.30115 34.7194 0 34.4169 0C34.1145 0 26.2466 6.93832 16.9332 15.4181ZM42.3682 8.78365L49.9087 15.6746L42.1227 22.7895L34.3367 29.9044L31.2006 27.0211C28.1515 24.2174 26.9266 23.551 26.9266 24.6954C26.9266 25.0026 32.0541 29.901 38.3211 35.5809C44.588 41.2612 49.7155 46.0258 49.7155 46.1697C49.7155 46.4096 34.7702 60.1069 34.5086 60.1069C34.1414 60.1069 2.58395 31.2754 2.58395 30.9404C2.58395 30.4003 33.7794 1.89313 34.3698 1.89313C34.6215 1.89313 38.2206 4.99408 42.3682 8.78365ZM83.6865 16.2038C92.3515 24.0745 99.3819 30.6701 99.3094 30.8604C99.1959 31.1581 75.294 53.2116 69.5004 58.3642L67.4686 60.1712L59.8866 53.3011C55.7168 49.5229 52.3052 46.2752 52.3052 46.0849C52.3052 45.5695 66.9476 32.1832 67.5116 32.1832C67.7778 32.1832 69.3808 33.4611 71.0744 35.0229C74.1458 37.8555 75.0941 38.387 75.0941 37.2748C75.0941 36.9515 69.9241 31.9593 63.6054 26.181L52.1167 15.6746L59.5914 8.80211C63.7027 5.022 67.2609 1.92105 67.4992 1.91111C67.7369 1.90117 75.0216 8.33308 83.6865 16.2038ZM58.8451 23.8407C62.9393 27.582 66.2893 30.7444 66.2893 30.868C66.2893 31.1552 51.3118 44.9618 51 44.9618C50.6271 44.9618 35.7314 31.2991 35.7314 30.9569C35.7314 30.495 50.4184 17.077 50.9467 17.0562C51.1968 17.0462 54.7508 20.0994 58.8451 23.8407Z" fill="#1C4284"/>
</svg>
