<svg width="158" height="55" viewBox="0 0 158 55" fill="none" xmlns="http://www.w3.org/2000/svg">
<path fill-rule="evenodd" clip-rule="evenodd" d="M0 2.55641V5.11281L4.00163 5.24957L8.00327 5.38634L8.14371 14.4026L8.28364 23.4188H11.6176H14.9517L15.0916 14.4026L15.232 5.38634L19.1046 5.15215L22.9771 4.91796L23.1331 2.45899L23.2895 1.71331e-05H11.6445H0V2.55641ZM26.3333 11.7094V23.4188H36.687H47.0411L46.8847 20.9598L46.7288 18.5009L40.1454 18.3697L33.5621 18.2386V16.1449V14.0513H39.2687H44.9758L44.8193 11.5923L44.6634 9.13334L39.0838 9.00033L33.5043 8.86684L33.6623 6.89264L33.8203 4.91796L40.1454 4.78635L46.4706 4.65474V2.32737V1.71331e-05H36.402H26.3333V11.7094ZM49.5686 0.377528C49.5686 0.585018 50.0912 1.40843 50.7304 2.20701C51.3696 3.00606 52.2407 4.12032 52.6667 4.6833C53.0927 5.24629 54.4289 6.94884 55.6356 8.46684C56.8423 9.98438 57.8301 11.3399 57.8301 11.4785C57.8301 11.6176 55.9604 14.0536 53.6745 16.892C51.3892 19.7308 49.3894 22.3603 49.2304 22.7359C48.9934 23.297 49.6388 23.4188 52.8515 23.4188H56.7617L59.0997 20.1697C60.3859 18.3828 61.6546 16.7988 61.92 16.6503C62.1849 16.5018 63.5129 17.8817 64.8704 19.7172C66.2278 21.5528 67.6023 23.1462 67.925 23.2586C68.2477 23.371 70.1546 23.4001 72.1626 23.3237L75.8137 23.1846L71.2105 17.4526C68.6789 14.3 66.6079 11.5089 66.6079 11.2495C66.6079 10.99 68.4667 8.48277 70.7386 5.6772C73.0105 2.87163 74.8693 0.44685 74.8693 0.288071C74.8693 0.12976 73.2593 1.71331e-05 71.2916 1.71331e-05C67.3023 1.71331e-05 67.3751 -0.0416683 64.3457 3.9873L62.3418 6.65282L61.1372 5.31702C60.4747 4.58214 59.9244 3.80885 59.914 3.59855C59.9037 3.38825 59.2872 2.49271 58.5431 1.60795C57.2182 0.0323343 57.1149 1.71331e-05 53.3797 1.71331e-05C51.2839 1.71331e-05 49.5686 0.170037 49.5686 0.377528ZM76.1095 0.653403C75.9577 1.01265 75.9066 2.11895 75.9965 3.11238L76.1601 4.91796L80.0327 5.15215L83.9052 5.38634L84.0457 14.4026L84.1856 23.4188H87.7891H91.3922V14.2855V5.15215H95.2647H99.1373V2.57608V1.71331e-05H87.7618C78.5074 1.71331e-05 76.3341 0.121797 76.1095 0.653403ZM102.235 11.7094V23.4188H105.85H109.464V11.7094V1.71331e-05H105.85H102.235V11.7094ZM114.627 11.7094V23.4188H124.438H134.248V20.8577V18.2962L128.181 18.1646L122.114 18.0325L121.974 9.01625L121.834 1.71331e-05H118.23H114.627V11.7094ZM137.346 11.7094V23.4188H147.673H158V20.8427V18.2667H151.288H144.575V16.159V14.0513H150.255H155.935V11.4752V8.89916H150.255H144.575V6.79147V4.68377H151.029H157.484V2.3419V1.71331e-05H147.415H137.346V11.7094ZM24.5261 31.9222C19.5631 34.2472 16.9117 38.041 16.8843 42.8564C16.844 49.9233 23.0159 55.0299 31.4967 54.9484C34.9645 54.9147 40.6452 53.4159 41.4027 52.334C41.6253 52.016 41.8111 49.5846 41.8158 46.9313L41.8235 42.107L38.8546 42.2475L35.8856 42.388L35.7385 45.4325C35.5644 49.0263 34.9474 49.6478 31.5551 49.6478C25.9703 49.6478 22.688 44.617 24.9991 39.5993C26.0622 37.2916 28.013 36.3146 31.5582 36.3146C33.8254 36.3146 34.902 36.5633 36.0911 37.3609C36.9493 37.9361 37.8348 38.3998 38.0594 38.3914C38.2835 38.3829 39.325 37.5928 40.3731 36.635C42.6553 34.5498 42.4158 34.0172 38.3511 32.1489C36.0353 31.0847 35.0316 30.9156 31.1265 30.9334C27.5854 30.9498 26.1387 31.1662 24.5261 31.9222ZM46.9869 42.8349V54.8426L50.4722 54.7044L53.9575 54.5658L54.1103 51.4043L54.2627 48.2427H56.2361C58.1037 48.2427 58.3387 48.4179 60.6338 51.5214L63.0591 54.8H66.6404C68.7822 54.8 70.2222 54.6037 70.2222 54.3115C70.2222 54.0431 69.3259 52.7223 68.2302 51.3771C65.4905 48.0132 65.221 47.0694 66.7426 46.1655C70.4406 43.9674 71.2921 38.2743 68.4316 34.872C65.9382 31.9067 63.3771 31.1887 54.6029 30.9952L46.9869 30.8271V42.8349ZM80.5707 31.9732C74.1309 34.9029 71.3029 41.1426 73.7571 47.0043C75.8266 51.9471 80.7489 54.8913 87.0033 54.9274C92.8508 54.9611 96.9067 52.9883 100.015 48.5977C101.256 46.8441 101.425 46.1514 101.414 42.8564C101.403 39.7525 101.189 38.7876 100.166 37.2359C98.5584 34.7966 97.0414 33.5123 94.0766 32.0805C90.7219 30.4604 84.0121 30.4074 80.5707 31.9732ZM105.413 39.4607C105.582 47.5743 105.656 48.1036 106.861 49.882C108.334 52.0567 108.977 52.5869 111.788 53.9471C115.996 55.984 123.831 54.9339 126.841 51.9293C129.206 49.5682 129.601 47.7214 129.601 39.0307V30.8702L126.116 31.0084L122.631 31.147L122.373 39.1904C122.125 46.9013 122.063 47.2835 120.863 48.4408C120.016 49.2568 119.068 49.6478 117.936 49.6478C115.428 49.6478 114.683 49.2413 113.573 47.2671C112.698 45.7112 112.562 44.4929 112.562 38.1914V30.9128H108.899H105.235L105.413 39.4607ZM134.885 42.6972L135.023 54.5658H138.379H141.735L141.872 52.4581C142.144 48.2479 142.148 48.2432 145.747 48.2376C151.037 48.2291 152.544 47.8268 155.136 45.7294C157.251 44.0189 157.565 43.5112 157.831 41.3768C158.425 36.6186 156.952 34.0013 152.619 32.1165C150.89 31.3643 149.102 31.1671 142.63 31.0145L134.747 30.8285L134.885 42.6972ZM91.94 37.7319C93.6403 39.2096 94.643 42.1103 94.1974 44.2639C94.0121 45.1617 93.061 46.6872 92.084 47.6549C90.4075 49.3148 90.1333 49.4137 87.1959 49.4137C84.262 49.4137 83.9832 49.3139 82.3165 47.6643C80.6843 46.0484 80.549 45.6821 80.549 42.8793C80.549 40.1646 80.7148 39.6733 82.1228 38.2185C83.8959 36.3867 84.9678 36.0598 88.2709 36.3441C89.8235 36.4776 91.0157 36.9282 91.94 37.7319ZM61.2828 36.9015C62.4973 37.6017 63.0508 39.8096 62.3465 41.1431C61.6004 42.5552 58.5282 43.6854 56.0373 43.4639L54.4739 43.3248L54.3221 39.9291L54.1702 36.5333L57.4201 36.5404C59.2077 36.5446 60.9457 36.7066 61.2828 36.9015ZM149.827 37.3085C150.42 37.7956 150.771 38.7328 150.771 39.8307C150.771 41.996 149.442 42.9075 145.611 43.3683C142.305 43.7665 142.012 43.4489 142.001 39.4607L141.993 36.5333H145.438C147.919 36.5333 149.147 36.7502 149.827 37.3085Z" fill="#1C4284"/>
</svg>
